<svg width="130" height="97" viewBox="0 0 130 97" fill="none" xmlns="http://www.w3.org/2000/svg">
<line x1="30.2521" y1="1.25" x2="30.2521" y2="52.75" stroke="white" stroke-width="4" stroke-linecap="round"/>
<line x1="51.994" y1="41.25" x2="51.994" y2="58.3864" stroke="white" stroke-width="4" stroke-linecap="round"/>
<path d="M65.0021 46.0419C65.0021 38.7412 51.9322 40.424 51.9322 40.424" stroke="white" stroke-width="4" stroke-linecap="round"/>
<path d="M53.0021 57.8596C54.0021 60.3596 51.6834 63.2254 48.1777 64.4261C44.672 65.6269 41.197 64.7521 40.4161 62.4722C39.6351 60.1922 41.844 57.3706 45.3497 56.1698C48.8554 54.969 52.2211 55.5797 53.0021 57.8596Z" fill="white"/>
<path d="M82.5021 63.75C88.1134 63.75 92.7521 58.9877 92.7521 53C92.7521 47.0123 88.1134 42.25 82.5021 42.25C76.8908 42.25 72.2521 47.0123 72.2521 53C72.2521 58.9877 76.8908 63.75 82.5021 63.75Z" stroke="white" stroke-width="4"/>
<line x1="71.0021" y1="64.5858" x2="93.5879" y2="42" stroke="white" stroke-width="3.5" stroke-linecap="round"/>
<path d="M106.002 87.9335C107.002 90.4335 104.683 93.2992 101.178 94.5C97.672 95.7008 94.197 94.826 93.4161 92.546C92.6352 90.2661 94.844 87.4444 98.3497 86.2436C101.855 85.0428 105.221 85.6535 106.002 87.9335Z" fill="white"/>
<line x1="1.25" y1="-1.25" x2="49.7507" y2="-1.25" transform="matrix(0.00505987 0.999987 -0.999975 0.00711766 103.42 40)" stroke="white" stroke-width="4" stroke-linecap="round"/>
<path d="M105.043 41.3879C123.002 45.5 117.97 61.954 105.749 63.3468" stroke="white" stroke-width="4" stroke-linecap="round"/>
<path d="M24.0021 49.7527C25.9661 49.7527 27.325 49.8771 28.2667 50.0955C29.2037 50.3127 29.6107 50.5963 29.8116 50.8259C30.0081 51.0506 30.1468 51.3815 30.212 52.0076C30.2795 52.6554 30.2534 53.3938 30.2521 54.4246C29.7737 58.9929 26.0452 64.2527 20.0021 64.2527C16.6658 64.2527 14.6285 63.6212 13.4396 62.6794C12.3136 61.7875 11.7521 60.4562 11.7521 58.5027C11.7521 56.8606 13.0436 54.6832 15.4288 52.8337C17.7608 51.0257 20.8733 49.7527 24.0021 49.7527Z" stroke="white" stroke-width="4"/>
</svg>
